<?xml version="1.0" standalone="no"?><!DOCTYPE svg PUBLIC "-//W3C//DTD SVG 1.1//EN" "http://www.w3.org/Graphics/SVG/1.1/DTD/svg11.dtd"><svg t="1683363831007" class="icon" viewBox="0 0 1024 1024" version="1.1" xmlns="http://www.w3.org/2000/svg" p-id="888" xmlns:xlink="http://www.w3.org/1999/xlink" width="200" height="200"><path d="M1016.913828 499.414516l-42.984188-26.60964a583.188288 583.188288 0 0 0-1.223892-12.51889l36.940725-34.456945a14.742693 14.742693 0 0 0 4.419608-13.706785 14.738693 14.738693 0 0 0-9.319174-10.975026l-47.223812-17.658435a549.371286 549.371286 0 0 0-3.699672-12.190919l29.457388-40.912372a14.790688 14.790688 0 0 0-9.627147-23.253938l-49.795584-8.099282c-1.935828-3.775665-3.95165-7.495335-5.98347-11.183008l20.922145-45.927928a14.730694 14.730694 0 0 0-1.151898-14.358726 14.710696 14.710696 0 0 0-12.814863-6.567418l-50.539519 1.759844a399.356588 399.356588 0 0 0-7.983292-9.683141l11.61497-49.227635a14.77469 14.77469 0 0 0-3.94365-13.862771 14.790688 14.790688 0 0 0-13.854772-3.94365l-49.215636 11.602971a424.730338 424.730338 0 0 0-9.703139-7.983292l1.767843-50.535519a14.734693 14.734693 0 0 0-6.559418-12.818864 14.77069 14.77069 0 0 0-14.358727-1.159897l-45.915929 20.934144a532.892747 532.892747 0 0 0-11.183008-5.999468l-8.11928-49.803584a14.798688 14.798688 0 0 0-23.245939-9.627146l-40.94037 29.457388c-4.027643-1.279887-8.079284-2.515777-12.166921-3.687673L622.824773 19.185099a14.758691 14.758691 0 0 0-10.979027-9.343172 14.826685 14.826685 0 0 0-13.694785 4.423608l-34.456945 36.968722a444.400594 444.400594 0 0 0-12.51889-1.223892l-26.60964-42.996187a14.790688 14.790688 0 0 0-25.15377 0l-26.60964 42.996187a441.560846 441.560846 0 0 0-12.530889 1.223892l-34.464944-36.968722a14.77869 14.77869 0 0 0-24.673812 4.919564l-17.654435 47.231812c-4.091637 1.171896-8.139278 2.415786-12.17892 3.687673L330.366706 40.647196a14.746692 14.746692 0 0 0-14.314731-1.659853 14.818686 14.818686 0 0 0-8.939207 11.286999l-8.11928 49.803584c-3.759667 1.947827-7.475337 3.95165-11.183009 5.999468l-45.919928-20.938143a14.742693 14.742693 0 0 0-14.350727 1.163896 14.734693 14.734693 0 0 0-6.567418 12.818864l1.759844 50.535519a472.07814 472.07814 0 0 0-9.70314 7.983292l-49.215636-11.598972a14.838684 14.838684 0 0 0-13.86277 3.939651 14.77469 14.77469 0 0 0-3.943651 13.862771l11.594972 49.227635c-2.691761 3.187717-5.351525 6.415431-7.963294 9.683141l-50.539518-1.759844a14.88268 14.88268 0 0 0-12.814864 6.563418 14.782689 14.782689 0 0 0-1.163897 14.358727l20.934144 45.931927c-2.035819 3.687673-4.047641 7.407343-5.999468 11.183008l-49.791585 8.099282a14.798688 14.798688 0 0 0-9.627146 23.253938l29.457388 40.916372c-1.279887 4.039642-2.523776 8.095282-3.699672 12.186919l-47.227813 17.658435a14.806687 14.806687 0 0 0-4.899565 24.681811l36.944724 34.452945c-0.459959 4.159631-0.867923 8.34726-1.219892 12.52289L6.999379 499.414516A14.77869 14.77869 0 0 0 0 511.993401c0 5.135545 2.651765 9.891123 7.003379 12.570885l42.988188 26.60964c0.351969 4.187629 0.759933 8.367258 1.219892 12.52289l-36.948724 34.464944a14.786689 14.786689 0 0 0 4.903565 24.673812l47.227813 17.658434c1.175896 4.087638 2.419785 8.147278 3.699672 12.18692l-29.457388 40.920371a14.782689 14.782689 0 0 0 9.639145 23.245939l49.783586 8.099282c1.947827 3.775665 3.94365 7.495335 5.999468 11.199007l-20.938144 45.915928a14.762691 14.762691 0 0 0 1.163897 14.358727 14.734693 14.734693 0 0 0 12.814864 6.563418l50.51552-1.767843c2.635766 3.283709 5.287531 6.503423 7.987292 9.703139l-11.594972 49.235634a14.726694 14.726694 0 0 0 3.943651 13.834774 14.730694 14.730694 0 0 0 13.86277 3.931651l49.215636-11.590972c3.199716 2.719759 6.439429 5.359525 9.70714 7.959294l-1.759844 50.551518a14.77469 14.77469 0 0 0 20.914145 13.966761l45.919928-20.922145a421.922587 421.922587 0 0 0 11.183009 5.995469l8.11928 49.775586a14.766691 14.766691 0 0 0 8.939207 11.298998 14.822686 14.822686 0 0 0 14.314731-1.651853l40.912372-29.477387c4.039642 1.279887 8.099282 2.531776 12.186919 3.707672l17.658435 47.211813a14.738693 14.738693 0 0 0 10.975026 9.323174 14.706696 14.706696 0 0 0 13.698786-4.423608l34.464944-36.948724c4.159631 0.479957 8.34326 0.879922 12.530888 1.251889l26.609641 42.988188a14.806687 14.806687 0 0 0 12.570885 6.99938 14.810687 14.810687 0 0 0 12.578885-6.99938l26.60964-42.988188c4.187629-0.371967 8.367258-0.771932 12.52289-1.251889l34.456945 36.948724a14.718695 14.718695 0 0 0 13.694785 4.423608 14.758691 14.758691 0 0 0 10.975027-9.323174l17.658434-47.211813c4.087638-1.175896 8.151277-2.427785 12.190919-3.707672l40.920372 29.477387a14.798688 14.798688 0 0 0 23.245938-9.647145l8.119281-49.775586c3.755667-1.947827 7.471338-3.971648 11.179008-5.999468l45.919928 20.926144a14.766691 14.766691 0 0 0 20.918146-13.966761l-1.759844-50.547518a395.004974 395.004974 0 0 0 9.69114-7.963294l49.219636 11.590972c4.999557 1.175896 10.239092-0.279975 13.850772-3.931651a14.726694 14.726694 0 0 0 3.94365-13.834774l-11.590972-49.235634c2.699761-3.199716 5.359525-6.419431 7.959294-9.703139l50.539519 1.767843a14.722695 14.722695 0 0 0 12.814863-6.559418 14.738693 14.738693 0 0 0 1.155898-14.366727l-20.926145-45.907929c2.043819-3.707671 4.051641-7.427341 5.987469-11.199007l49.795585-8.103281a14.726694 14.726694 0 0 0 11.286999-8.943207 14.782689 14.782689 0 0 0-1.659853-14.302732l-29.457388-40.916372c1.271887-4.043641 2.515777-8.103281 3.699672-12.190919l47.219813-17.658434a14.734693 14.734693 0 0 0 9.323174-10.979026 14.706696 14.706696 0 0 0-4.423608-13.694786l-36.936725-34.464944c0.44796-4.159631 0.859924-8.34326 1.219892-12.51889l42.988188-26.61364a14.758691 14.758691 0 0 0 7.003379-12.570885c0-5.123546-2.639766-9.887123-6.99538-12.578885z m-287.702489 356.59238c-16.414544-3.539686-26.853619-19.718252-23.329931-36.184791 3.511689-16.446542 19.678255-26.913614 36.0888-23.373928 16.414544 3.515688 26.869617 19.722251 23.34993 36.156794-3.519688 16.438542-19.702253 26.917613-36.108799 23.401925z m-14.606704-98.78724a27.713543 27.713543 0 0 0-32.917082 21.326109l-15.262646 71.221685c-47.095824 21.374105-99.391187 33.249052-154.470303 33.249051-56.339004 0-109.774266-12.462895-157.706016-34.748918l-15.254647-71.217685c-3.207716-14.986671-17.942409-24.533825-32.909082-21.31811l-62.874425 13.502803a373.054921 373.054921 0 0 1-32.509117-38.316603h305.932872c3.459693 0 5.767489-0.627944 5.767489-3.779665v-108.218404c0-3.147721-2.307795-3.775665-5.771489-3.775665H427.162123v-68.593918h96.771419c8.831217 0 47.231812 2.519777 59.506723 51.603425 3.847659 15.094662 12.28691 64.194308 18.062399 79.912914 5.75149 17.630437 29.169413 52.847314 54.1272 52.847313h152.446482c1.731846 0 3.579683-0.195983 5.52751-0.547951a375.646691 375.646691 0 0 1-34.672925 40.676393l-64.322297-13.822774z m-423.122481 97.299372c-16.418544 3.543686-32.581111-6.923386-36.112798-23.369928-3.511689-16.474539 6.927386-32.645105 23.34193-36.184791a30.425302 30.425302 0 0 1 36.108798 23.397925c3.511689 16.438542-6.935385 32.637106-23.34193 36.156794zM175.424445 383.920757c6.811396 15.366637-0.119989 33.37704-15.466629 40.176438-15.346639 6.819395-33.309046-0.119989-40.116443-15.498626a30.457299 30.457299 0 0 1 15.466629-40.176438 30.389305 30.389305 0 0 1 40.116443 15.494626z m-35.668837 84.552503l65.498192-29.10542a27.765538 27.765538 0 0 0 14.09475-36.628752l-13.486804-30.501295h53.051296v239.130796H151.878533a374.766769 374.766769 0 0 1-14.262736-102.678895c0-13.590795 0.731935-27.021604 2.139811-40.220434z m287.422513-23.225941V374.761569h126.332798c6.527421 0 46.075914 7.543331 46.075915 37.116709 0 24.553823-30.33331 33.357042-55.279099 33.357042h-117.129614v0.011999z m459.127289 63.442375c0 9.351171-0.343969 18.60635-1.027909 27.789535h-38.408594c-3.843659 0-5.391522 2.527776-5.391522 6.291443v17.638435c0 41.516319-23.409924 50.547518-43.924106 52.847314-19.534268 2.199805-41.196347-8.179275-43.86411-20.134214-11.526978-64.818252-30.729275-78.661025-61.054586-102.582904 37.636663-23.897881 76.793191-59.154755 76.79319-106.35057 0-50.955482-34.932902-83.052636-58.74679-98.79124-33.405038-22.022047-70.393758-26.437656-80.372874-26.437655H233.095331c53.863224-60.11467 126.864751-102.698893 209.429429-118.19352l46.819849 49.115645a27.689545 27.689545 0 0 0 39.192525 0.90392l52.387354-50.107557c109.770266 20.438188 202.710025 88.768129 256.269276 182.515816l-35.864819 81.004817c-6.191451 14.018757 0.127989 30.413303 14.106749 36.624752l69.049877 30.669281c1.191894 12.258913 1.819839 24.641815 1.819839 37.196702zM489.364607 98.982023c12.130924-11.61897 31.373218-11.159011 42.988188 0.987912 11.590972 12.18292 11.151011 31.445212-1.00791 43.056183-12.130924 11.622969-31.373218 11.171009-42.988189-0.999912a30.481297 30.481297 0 0 1 1.007911-43.044183z m355.900442 286.414603a30.373307 30.373307 0 0 1 40.108443-15.486627c15.350639 6.807396 22.278025 24.8098 15.466629 40.176438a30.377306 30.377306 0 0 1-40.116443 15.498626c-15.330641-6.811396-22.258026-24.797801-15.458629-40.188437z" fill="#285A4E" p-id="889"></path></svg>